#!OML:ASF F:\VICON\USERDATA\INSTALL\rory3\rory3.ASF
:FULLY-SPECIFIED
:DEGREES
2118
root -11.0134 17.8669 5.39453 -361.884 -37.4429 -2.49933
lowerback 12.0553 2.008 3.42472
upperback 1.1581 3.14085 0.717528
thorax -5.39567 1.46584 -1.6889
lowerneck -21.8564 -4.48259 -9.65864
upperneck 24.9785 -4.64907 5.59514
head 12.2561 -2.29336 2.94304
rclavicle -4.45526e-014 3.18055e-015
rhumerus -30.3189 -5.75529 -79.2533
rradius 32.1606
rwrist 2.51281
rhand -17.3741 10.0349
rfingers 7.12502
rthumb 8.87438 -19.7585
lclavicle -4.45526e-014 3.18055e-015
lhumerus -37.9527 0.617226 85.4904
lradius 35.0876
lwrist -6.16858
lhand -19.6744 23.0377
lfingers 7.12502
lthumb 6.6541 52.9131
rfemur -3.59495 -0.612834 26.1503
rtibia 27.6673
rfoot -16.5578 -4.87248
rtoes 5.1472
lfemur -20.762 0.213195 -17.5695
ltibia 39.2285
lfoot -9.20444 1.04216
ltoes -10.707
2119
root -11.0718 17.8623 5.47806 -361.752 -37.4412 -2.58056
lowerback 11.9432 2.05719 3.54778
upperback 1.11378 3.21858 0.700089
thorax -5.36831 1.50165 -1.78441
lowerneck -21.8305 -4.49959 -9.70497
upperneck 24.9275 -4.67294 5.64927
head 12.236 -2.30087 2.96679
rclavicle -3.51725e-014 -7.95139e-015
rhumerus -30.0252 -5.44841 -79.2816
rradius 32.4703
rwrist 2.44449
rhand -17.3926 9.74972
rfingers 7.12502
rthumb 8.85654 -20.0444
lclavicle -3.51725e-014 -7.95139e-015
lhumerus -38.0791 0.780069 85.4668
lradius 35.0599
lwrist -6.10025
lhand -20.296 23.2019
lfingers 7.12502
lthumb 6.05407 53.0954
rfemur -3.18355 -0.764586 26.1849
rtibia 27.4318
rfoot -16.8465 -4.87911
rtoes 4.82906
lfemur -20.9426 0.0462506 -17.5897
ltibia 37.0756
lfoot -9.21963 1.66694
ltoes -11.0885
2120
root -11.1294 17.8592 5.55968 -361.574 -37.3234 -2.71244
lowerback 11.8106 2.0725 3.71049
upperback 1.09985 3.25337 0.668346
thorax -5.29638 1.51665 -1.90832
lowerneck -21.871 -4.49203 -9.7098
upperneck 24.8884 -4.68453 5.75336
head 12.2323 -2.29128 3.00477
rclavicle -2.75565e-014 6.16232e-015
rhumerus -29.7446 -5.01957 -79.3865
rradius 32.863
rwrist 2.21708
rhand -17.8226 9.47863
rfingers 7.12502
rthumb 8.4415 -20.3327
lclavicle -2.75565e-014 6.16232e-015
lhumerus -38.0705 1.04141 85.3567
lradius 34.9199
lwrist -6.25726
lhand -20.5471 22.993
lfingers 7.12502
lthumb 5.8116 52.8933
rfemur -2.81046 -1.01862 26.2628
rtibia 27.2215
rfoot -17.123 -4.90178
rtoes 4.41932
lfemur -21.1126 -0.145884 -17.5759
ltibia 34.8084
lfoot -8.97715 2.25005
ltoes -12.3064
2121
root -11.1865 17.8561 5.63895 -361.404 -37.24 -2.78342
lowerback 11.6362 2.12523 3.76339
upperback 1.11726 3.32067 0.646299
thorax -5.17274 1.55186 -1.9625
lowerneck -21.9993 -4.51784 -9.60763
upperneck 24.8304 -4.71616 5.67313
head 12.2325 -2.30255 2.94937
rclavicle -4.18939e-014 1.22253e-014
rhumerus -29.4358 -4.72843 -79.3997
rradius 33.258
rwrist 2.05231
rhand -18.0927 9.20629
rfingers 7.12502
rthumb 8.18082 -20.6153
lclavicle -4.18939e-014 1.22253e-014
lhumerus -37.905 1.19329 85.2876
lradius 34.6347
lwrist -6.36017
lhand -20.4968 22.8018
lfingers 7.12502
lthumb 5.86019 52.7007
rfemur -2.49548 -1.17837 26.3031
rtibia 27.0203
rfoot -17.3433 -4.93252
rtoes 4.19363
lfemur -21.2226 -0.278134 -17.5689
ltibia 32.4731
lfoot -8.6418 2.51205
ltoes -12.6456
2122
root -11.244 17.8501 5.7151 -361.207 -37.2318 -2.89618
lowerback 11.5358 2.19088 3.7654
upperback 1.0933 3.40657 0.683045
thorax -5.13932 1.59519 -1.934
lowerneck -22.1331 -4.56516 -9.543
upperneck 24.7951 -4.75767 5.56532
head 12.2441 -2.32584 2.88816
rclavicle 9.23106e-015 1.98785e-015
rhumerus -29.0949 -4.54948 -79.2982
rradius 33.4901
rwrist 2.01845
rhand -17.9372 9.3238
rfingers 7.12502
rthumb 8.3309 -20.4919
lclavicle 9.23106e-015 1.98785e-015
lhumerus -37.7667 1.21428 85.3191
lradius 34.3804
lwrist -6.17999
lhand -20.0951 22.9612
lfingers 7.12502
lthumb 6.248 52.849
rfemur -2.20936 -1.09025 26.4248
rtibia 26.8107
rfoot -17.4593 -5.09295
rtoes 3.89813
lfemur -21.3413 -0.397999 -17.4811
ltibia 30.158
lfoot -8.32 2.70524
ltoes -13.3011
2123
root -11.3016 17.8457 5.79307 -361.028 -37.2212 -2.98005
lowerback 11.4093 2.23513 3.80524
upperback 1.05494 3.46549 0.667261
thorax -5.10251 1.62404 -1.97641
lowerneck -22.2106 -4.5645 -9.59849
upperneck 24.7899 -4.76685 5.6973
head 12.2633 -2.31626 2.94601
rclavicle 4.5882e-014 -9.74045e-015
rhumerus -28.7268 -4.37371 -79.2884
rradius 33.6447
rwrist 1.97083
rhand -17.6857 9.52361
rfingers 7.12502
rthumb 8.57368 -20.2823
lclavicle 4.5882e-014 -9.74045e-015
lhumerus -37.7505 1.34044 85.2428
lradius 34.216
lwrist -6.11833
lhand -19.9655 23.1316
lfingers 7.12502
lthumb 6.37312 53.0158
rfemur -1.8927 -0.90589 26.5324
rtibia 26.5804
rfoot -17.5578 -5.34794
rtoes 3.35182
lfemur -21.4362 -0.707551 -17.3961
ltibia 27.9096
lfoot -8.04979 2.97947
ltoes -13.7297
